<?xml version="1.0" encoding="utf-8"?>
<!-- Generator: Adobe Illustrator 16.0.0, SVG Export Plug-In . SVG Version: 6.00 Build 0)  -->
<!DOCTYPE svg PUBLIC "-//W3C//DTD SVG 1.1//EN" "http://www.w3.org/Graphics/SVG/1.1/DTD/svg11.dtd">
<svg version="1.1" id="Layer_1" xmlns="http://www.w3.org/2000/svg" xmlns:xlink="http://www.w3.org/1999/xlink" x="0px" y="0px"
	 width="30px" height="30px" viewBox="0 0 30 30" enable-background="new 0 0 30 30" xml:space="preserve">
<g>
	<path fill="#FFFFFF" d="M26.695,22.462c-0.934-0.622-2.054-0.842-3.154-0.622l-4.328,0.908c0.254-1.233-0.391-2.483-1.573-2.947
		l-4.632-1.832c-1.845-0.73-3.893-0.774-5.771-0.125l-5.948,2.085v7.951l6.81-2.285l8.288,3.116l12.311-2.538l-0.21-1.039
		C28.266,24.032,27.629,23.084,26.695,22.462L26.695,22.462z M16.517,27.043l-8.388-3.154l-5.231,1.755v-4.574l4.869-1.706
		c1.512-0.524,3.164-0.488,4.65,0.102l4.634,1.833c0.481,0.188,0.726,0.758,0.549,1.27c-0.095,0.269-0.282,0.479-0.533,0.594
		c-0.231,0.106-0.489,0.115-0.724,0.023l-5.608-2.198l-0.588,1.498l5.609,2.198c0.446,0.174,0.921,0.219,1.381,0.132l0.003,0.013
		l6.722-1.411c0.678-0.135,1.368,0.002,1.943,0.385c0.425,0.283,0.75,0.674,0.945,1.131L16.517,27.043z"/>
	<path fill="#FFFFFF" d="M20.263,18.188c4.659,0,8.449-3.791,8.449-8.45c0-4.658-3.79-8.448-8.449-8.448
		c-4.659,0-8.45,3.79-8.45,8.448C11.813,14.396,15.604,18.188,20.263,18.188z M20.263,2.897c3.771,0,6.841,3.068,6.841,6.84
		c0,3.772-3.069,6.841-6.841,6.841c-3.772,0-6.841-3.068-6.841-6.841C13.421,5.966,16.49,2.897,20.263,2.897z"/>
	<path fill="#FFFFFF" d="M18.024,14.589h1.607v-1.226h1.372v1.226h1.609v-1.238c1.107-0.12,1.976-1.063,1.976-2.203
		c0-0.535-0.192-1.027-0.509-1.411c0.316-0.383,0.509-0.876,0.509-1.411c0-1.14-0.868-2.081-1.976-2.201v-1.24h-1.609v1.228h-1.372
		V4.884h-1.609v1.228h-1.278v1.607h1.278v4.035h-1.278v1.609h1.278v1.226H18.024z M22.373,11.754h-2.741v-1.212h2.741
		c0.335,0,0.607,0.271,0.607,0.605C22.98,11.482,22.708,11.754,22.373,11.754z M22.373,7.719c0.335,0,0.607,0.273,0.607,0.606
		c0,0.335-0.272,0.607-0.607,0.607h-2.741V7.719H22.373L22.373,7.719z"/>
</g>
</svg>
