<?xml version="1.0" encoding="utf-8"?>
<!-- Generator: Adobe Illustrator 16.0.0, SVG Export Plug-In . SVG Version: 6.00 Build 0)  -->
<!DOCTYPE svg PUBLIC "-//W3C//DTD SVG 1.1//EN" "http://www.w3.org/Graphics/SVG/1.1/DTD/svg11.dtd">
<svg version="1.1" id="Layer_1" xmlns="http://www.w3.org/2000/svg" xmlns:xlink="http://www.w3.org/1999/xlink" x="0px" y="0px"
	 width="30px" height="30px" viewBox="0 0 30 30" enable-background="new 0 0 30 30" xml:space="preserve">
<g>
	<g>
		<g>
			<path fill="#FFFFFF" d="M28.89,7.337h-8.827c0.136-0.467,0.205-0.95,0.206-1.437c0-2.91-2.359-5.269-5.269-5.269
				c-2.91,0-5.269,2.359-5.269,5.269c0.001,0.486,0.07,0.97,0.206,1.437H1.111c-0.265,0-0.479,0.214-0.479,0.479v2.874
				c0,0.265,0.214,0.479,0.479,0.479h1.437v13.889c0,0.265,0.214,0.479,0.479,0.479h6.227v3.353c0,0.265,0.214,0.479,0.479,0.479
				h10.537c0.265,0,0.479-0.214,0.479-0.479v-3.353h6.227c0.265,0,0.479-0.215,0.479-0.479V11.168h1.438
				c0.265,0,0.479-0.214,0.479-0.479V7.816C29.368,7.551,29.154,7.337,28.89,7.337z M15,1.59c2.381,0,4.311,1.93,4.311,4.311
				c0.002,0.489-0.082,0.976-0.247,1.437h-1.756c0.183-0.495,0.072-1.05-0.287-1.437c0.532-0.584,0.49-1.489-0.094-2.021
				c-0.265-0.242-0.609-0.375-0.969-0.374h-0.479V2.547h-0.958v0.958h-0.479V2.547h-0.958v0.958c-0.265,0-0.479,0.214-0.479,0.479
				v3.353h-1.669C10.772,6.876,10.688,6.39,10.689,5.9C10.689,3.52,12.619,1.59,15,1.59z M15.958,5.421h-2.395V4.463h2.395
				c0.265,0,0.479,0.214,0.479,0.479S16.223,5.421,15.958,5.421z M16.437,6.858c0,0.129-0.052,0.253-0.146,0.341
				c-0.088,0.089-0.208,0.139-0.333,0.138h-2.395V6.379h2.395C16.223,6.379,16.437,6.593,16.437,6.858z M19.789,28.41H10.21V14.042
				h9.579V28.41z M26.494,24.579h-5.747V14.042h1.437v-0.958H7.816v0.958h1.437v10.537H3.505V11.168h22.989V24.579z M28.41,10.21
				H1.59V8.295h26.82V10.21z"/>
		</g>
	</g>
	<g>
		<g>
			<path fill="#FFFFFF" d="M17.307,18.831c-0.264-0.746-1.081-1.139-1.828-0.875c-0.575,0.202-0.959,0.745-0.958,1.354
				c0,0.265-0.214,0.479-0.479,0.479s-0.479-0.214-0.479-0.479s0.214-0.479,0.479-0.479v-0.957
				c-0.606,0.002-1.146,0.385-1.349,0.957h-0.567v0.958h0.567c0.203,0.573,0.742,0.956,1.349,0.958c0.794,0,1.437-0.644,1.437-1.437
				c0-0.265,0.214-0.479,0.479-0.479s0.479,0.215,0.479,0.479s-0.214,0.479-0.479,0.479v0.958c0.606-0.002,1.146-0.385,1.349-0.958
				h0.567v-0.958H17.307z"/>
		</g>
	</g>
	<g>
		<g>
			<path fill="#FFFFFF" d="M15,15c-2.381,0-4.311,1.93-4.311,4.311c0.003,2.38,1.931,4.308,4.311,4.311
				c2.381,0,4.311-1.93,4.311-4.311S17.381,15,15,15z M15,22.663c-1.852,0-3.353-1.501-3.353-3.353
				c0.002-1.851,1.502-3.351,3.353-3.353c1.853,0,3.353,1.5,3.353,3.353C18.353,21.162,16.853,22.663,15,22.663z"/>
		</g>
	</g>
	<g>
		<g>
			<rect x="14.521" y="16.437" fill="#FFFFFF" width="0.958" height="0.958"/>
		</g>
	</g>
	<g>
		<g>
			<rect x="14.521" y="21.227" fill="#FFFFFF" width="0.958" height="0.957"/>
		</g>
	</g>
	<g>
		<g>
			<path fill="#FFFFFF" d="M12.126,26.494v-1.437h-0.958v1.916c0,0.265,0.214,0.479,0.479,0.479h1.916v-0.958H12.126z"/>
		</g>
	</g>
	<g>
		<g>
			<path fill="#FFFFFF" d="M17.874,25.058v1.437h-1.438v0.958h1.916c0.265,0,0.479-0.214,0.479-0.479v-1.916H17.874z"/>
		</g>
	</g>
	<g>
		<g>
			<path fill="#FFFFFF" d="M4.463,1.59H3.505c0,1.058-0.858,1.916-1.916,1.916v0.958c1.058,0,1.916,0.858,1.916,1.916h0.958
				c0-1.058,0.858-1.916,1.916-1.916V3.505C5.321,3.505,4.463,2.647,4.463,1.59z M3.984,4.792L3.98,4.787
				C3.769,4.471,3.498,4.2,3.182,3.989L3.176,3.984c0.32-0.213,0.595-0.488,0.808-0.808c0.213,0.32,0.488,0.595,0.808,0.808
				C4.472,4.197,4.197,4.472,3.984,4.792z"/>
		</g>
	</g>
	<g>
		<g>
			<path fill="#FFFFFF" d="M26.494,1.59h-0.957c0,1.058-0.858,1.916-1.916,1.916v0.958c1.058,0,1.916,0.858,1.916,1.916h0.957
				c0-1.058,0.858-1.916,1.916-1.916V3.505C27.353,3.505,26.494,2.647,26.494,1.59z M26.818,3.989
				C26.502,4.2,26.23,4.471,26.02,4.787l-0.004,0.006c-0.213-0.32-0.488-0.595-0.809-0.808c0.32-0.213,0.596-0.488,0.809-0.808
				c0.213,0.32,0.488,0.595,0.809,0.808L26.818,3.989z"/>
		</g>
	</g>
</g>
</svg>
